<svg height="256mm" viewBox="0 0 256 256" width="256mm" xmlns="http://www.w3.org/2000/svg"><circle cx="128" cy="128" fill="#fff" r="118.89996" stroke-width=".264583"/><g stroke="#000" stroke-width=".475871" transform="translate(52.014978 28.000345)"><path d="m75.995202.0888762c13.648301 33.8092648 15.513354 33.8519468 40.902278 57.8943718 7.91192 7.290414 3.32722 17.786426-9.96631 30.641855 15.33098-8.345231 24.89298-11.014397 43.51633-9.269012 3.71553 21.855879.48007 35.585059-24.52129 59.941819-1.13849 8.01415 9.68042 9.65617 9.68042 9.65617-1.25981 3.9489-6.24612 10.51862-19.43367 10.66362-20.450474-.0903-24.325799-.51911-40.187936-8.05142z"/><path d="m75.974844.0888798c-13.648309 33.8092622-15.513353 33.8519422-40.902284 57.8943762-7.911919 7.290406-3.327207 17.786418 9.966316 30.641847-15.330978-8.345231-24.892983-11.014397-43.5163297-9.269012-3.7155362 21.855879-.4800738 35.585059 24.5212917 59.941819 1.138493 8.01415-9.680424 9.65617-9.680424 9.65617 1.259808 3.9489 6.246129 10.51862 19.433681 10.66362 20.450459-.0903 24.32578-.51911 40.187929-8.05142z"/><path d="m74.546109 151.41388c.07698 10.72635.496824 21.62825-3.80697 31.16957-2.329712 5.16487-10.4888 9.56669-8.208777 14.69252.942251 2.11832 5.534342 3.50122 6.781164 1.54659 4.884705-7.65768 5.724573-9.22155 7.494972-15.70375 2.780008-10.17882 2.113863-21.51758.773291-31.64544z"/></g></svg>